<?xml version="1.0" encoding="iso-8859-1"?>
<!-- Uploaded to: SVG Repo, www.svgrepo.com, Generator: SVG Repo Mixer Tools -->
<!DOCTYPE svg PUBLIC "-//W3C//DTD SVG 1.1//EN" "http://www.w3.org/Graphics/SVG/1.1/DTD/svg11.dtd">
<svg fill="#000000" version="1.1" id="Capa_1" xmlns="http://www.w3.org/2000/svg" xmlns:xlink="http://www.w3.org/1999/xlink" 
	 width="800px" height="800px" viewBox="0 0 80 80" xml:space="preserve">
<g>
	<g>
		<polygon points="58.719,33.205 58.719,37.913 61.072,35.56 		"/>
		<circle cx="54.917" cy="26.466" r="0.867"/>
		<polygon points="44.338,34.485 44.338,40.765 47.479,37.624 		"/>
		<polygon points="29.688,32.717 29.688,37.422 32.04,35.071 		"/>
		<circle cx="40.476" cy="27.031" r="1.175"/>
		<circle cx="25.939" cy="25.951" r="0.867"/>
		<polygon points="50.621,33.205 48.267,35.56 50.621,37.913 		"/>
		<polygon points="35.633,34.485 32.493,37.624 35.633,40.765 		"/>
		<path d="M40,80c22.092,0,40-17.908,40-40C80,17.909,62.092,0,40,0C17.908,0,0,17.909,0,40C0,62.092,17.908,80,40,80z
			 M26.693,36.37c0,0.553-0.447,1-1,1c-0.553,0-1-0.447-1-1v-6.093c0-0.553,0.447-1,1-1c0.553,0,1,0.447,1,1V36.37z M41.189,39.169
			c0,0.553-0.448,1-1,1c-0.553,0-1-0.447-1-1V32.07c0-0.553,0.447-1,1-1c0.553,0,1,0.447,1,1V39.169z M55.673,36.885
			c0,0.553-0.447,1-1,1c-0.554,0-1-0.447-1-1v-6.094c0-0.553,0.446-1,1-1c0.553,0,1,0.447,1,1V36.885z M58.427,30.085l4.769,4.768
			c0.391,0.391,0.391,1.023,0,1.414l-4.08,4.078c-0.114,0.114-0.252,0.187-0.396,0.231v11.052c0,0.553-0.446,1-1,1
			c-0.553,0-1-0.447-1-1V30.791c0-0.13,0.026-0.26,0.077-0.382c0.102-0.245,0.296-0.439,0.541-0.541c0.244-0.102,0.52-0.102,0.764,0
			C58.224,29.919,58.335,29.992,58.427,30.085z M54.917,23.599c1.581,0,2.868,1.286,2.868,2.866c0,1.581-1.287,2.868-2.868,2.868
			c-1.58,0-2.866-1.287-2.866-2.868C52.051,24.885,53.337,23.599,54.917,23.599z M44.046,31.364l2.794,2.794l4.072-4.073
			c0.093-0.093,0.203-0.166,0.326-0.217c0.244-0.102,0.521-0.102,0.765,0c0.245,0.102,0.44,0.296,0.541,0.541
			c0.051,0.122,0.077,0.252,0.077,0.382v20.837c0,0.553-0.447,1-1,1s-1-0.447-1-1V40.576c-0.146-0.047-0.281-0.117-0.396-0.231
			l-1.318-1.319l-4.059,4.058c-0.145,0.145-0.324,0.217-0.51,0.255v13.007c0,0.553-0.447,1-1,1s-1-0.447-1-1V32.071
			c0-0.13,0.025-0.26,0.076-0.382c0.103-0.245,0.297-0.439,0.541-0.541s0.521-0.102,0.765,0
			C43.843,31.198,43.953,31.272,44.046,31.364z M40.476,23.856c1.751,0,3.175,1.425,3.175,3.176s-1.424,3.175-3.175,3.175
			s-3.175-1.424-3.175-3.175S38.725,23.856,40.476,23.856z M29.396,29.596l4.148,4.149l2.381-2.381
			c0.092-0.093,0.203-0.166,0.326-0.217c0.244-0.102,0.52-0.102,0.764,0c0.245,0.102,0.44,0.296,0.541,0.541
			c0.051,0.122,0.077,0.252,0.077,0.382v24.274c0,0.553-0.447,1-1,1c-0.553,0-1-0.447-1-1V43.338
			c-0.186-0.038-0.365-0.11-0.51-0.255l-4.134-4.135l-0.906,0.906c-0.114,0.114-0.252,0.186-0.396,0.232v11.052c0,0.554-0.447,1-1,1
			c-0.553,0-1-0.446-1-1V30.302c0-0.13,0.026-0.26,0.077-0.382c0.102-0.245,0.296-0.439,0.541-0.541c0.244-0.102,0.52-0.102,0.764,0
			C29.193,29.43,29.304,29.503,29.396,29.596z M25.939,23.084c1.581,0,2.867,1.286,2.867,2.866c0,1.581-1.286,2.868-2.867,2.868
			c-1.58,0-2.866-1.287-2.866-2.868C23.073,24.37,24.359,23.084,25.939,23.084z M17.114,34.487l4.619-4.619
			c0.157-0.348,0.502-0.591,0.908-0.591c0.553,0,1,0.447,1,1v20.836c0,0.554-0.447,1-1,1c-0.553,0-1-0.446-1-1V40.221
			c-0.163-0.044-0.32-0.113-0.448-0.242l-4.079-4.078C16.723,35.51,16.723,34.877,17.114,34.487z"/>
		<polygon points="21.641,32.787 19.235,35.194 21.641,37.599 		"/>
	</g>
</g>
</svg>